<svg xmlns="http://www.w3.org/2000/svg" xmlns:xlink="http://www.w3.org/1999/xlink" x="0px" y="0px" viewBox="0 0 350.4 160.8" xml:space="preserve"><g><g><g><path class="st0" d="M18.6 70.7l1.5-.2 1.5-.3 1.4-.5 1.4-.5 1.3-.6 1.3-.6 1.2-.7 1.1-.7 1-.6 1.3-.9.4.2v5.5l.1 0 .5-.1h0l.6-.1.7-.1.7-.1.8-.1h0l.8-.1.8-.1.8-.1.8-.1h0l.7-.1.7-.1.7-.1.8-.1.8-.1.8-.1.8-.1.7-.1.7-.1.6-.1.5-.1h0l.4-.1.2 0v-.8h-.1l-.4 0H46l-.4 0-.4 0h-.3l-.7 0-.7 0h-.1L42.8 68l0 0-.6-.2-.1 0-.5-.2-.1 0-.4-.3-.1-.1-.4-.4-.1-.1-.3-.5 0-.1L40 65.6l0-.1-.2-.7 0 0-.2-.9v0l-.1-1v0l0-1.2 0-.8V60l0-.8 0-.8v-1.9l0-1V52l0-1.3V26.5l0-1.8v-5.5l0-1.8v-5.1l0-1.6V6.5l0-1.2V2.1l0-.8V0h0L39 .1h0l-.5.1-.6.1-.7.2h0l-.7.2-.8.2L34.9 1l-.7.2-.7.2v0l-.7.1L32 1.7l-.8.2v0L30.5 2h0l-.8.1-.8.2h0L28 2.5l-.8.1-.7.1-.7.1-.6.1L24.8 3l-.3 0V4l2 .2 1 .1.1 0 .9.2.1 0 .8.3.1.1.6.4.1.1.5.5.1.1.4.7 0 .1.3.8 0 .1.2.9 0 0 .1 1v0l.1 1.2 0 1.1 0 1.2 0 1.3v1.3l0 1.4v2.8l0 1.4v7.3l-.3.2-.5-.2L31 28.4l0 0-.3-.1-.5-.2-.7-.2-.8-.2-.9-.2-1-.2-1.1-.2L24.4 27l-1.4-.1-1.5 0-1.8.1-1.7.2-1.6.3-1.6.4-1.5.5L11.9 29l-1.4.8-1.4 1L7.7 32l-1.3 1.3-1.1 1.3L4.2 36l-.9 1.5-.8 1.6-.7 1.7-.6 1.8-.5 1.8-.3 1.9-.2 2-.1 2 .1 2 .2 2 .3 1.9.5 1.8.6 1.7.7 1.5.8 1.5L4 64.1l1 1.2 1.1 1.1 1.1 1 1.2.9L9.7 69l1.4.6 1.4.5 1.5.3 1.5.2 1.6.1L18.6 70.7M21.8 66.6l-.8 0h0l-.8-.1h-.1l-.8-.2 0 0-.8-.2h0l-.9-.3 0 0-.8-.3h0l-.8-.4 0 0L15 64.6l0 0L14.1 64l0 0-.8-.6 0 0-.8-.7 0 0-.7-.8 0 0L11 60.7l0 0-.6-1 0 0-.6-1.1 0 0-.5-1.2 0 0-.5-1.3v0l-.4-1.4v0L8 52.9l0 0-.2-1.6v0l-.2-1.8v0l0-1.9v0l.1-2.1v0l.2-2v0L8 41.4l0 0 .4-1.8v-.1L9 37.9l0 0 .6-1.5 0 0 .7-1.4 0-.1.8-1.2 0 0 .9-1.1 0 0 1-1 0 0 1.1-.8 0 0 1.2-.7.1 0 1.3-.5.1 0 1.4-.4 0 0 1.5-.2H20l1.6-.1h0l1.4.1h0l1.3.1h0l1.2.2 0 0 1.1.3 0 0 .9.4h0l.9.4 0 0 .7.4 0 0 .6.4 0 0 .5.4h0l.5.4 0 0 .3.3 0 0 .2.2.1.1.1.1.1.2V33l-.1 30.4-.5.4L31 64l0 0-.4.3L30 64.7l0 0L29.3 65l0 0-.7.3h0l-.8.3 0 0L26.8 66h0l-1 .2 0 0-1.1.2h0l-1.3.1h0L21.8 66.6 21.8 66.6M73.7 69.9h-.5l-.6 0-.7 0-.8 0-.8 0h-.9l-.9 0-.9 0-1 0-.9 0h-.9l-.8 0h-3.1l-.8 0H59l-.9 0-.9 0-.9 0-.8 0h-.9l-.8 0-.7 0-.7 0-.5 0h-.6v-1l2.9-.3.8-.1 0 0 .7-.2h.1l.6-.2.1 0 .5-.3.1-.1.4-.3.1-.1.3-.4.1-.1.2-.6 0-.1.1-.7v0l.1-.8v0l0-1 0-1.6 0-1.5 0-1.4v-1.3l0-1.3V44.7l0-1.3v-1.3l0-1.4 0-1.4 0-1.6-.1-1.2v0l-.1-1 0-.1L58 34.5l0 0-.3-.8 0-.1-.4-.7-.1-.1-.5-.5-.1-.1L56 31.9l-.1 0-.8-.3-.1 0-.9-.2-.1 0-1.1-.1-2-.2v-.9l.3 0 .5-.1.6-.1.7-.1.7-.1.8-.1.8-.1h0l.8-.2.8-.1h0l.8-.2v0l.8-.2.7-.1.7-.2.7-.2.7-.2.8-.2h0l.7-.2.7-.2h0l.7-.2.6-.1.5-.1L66 27h0v.6l0 .6v1.6l0 .9v2.1l0 1.1v2.3l0 1.2v2.3l0 1.1v12.7l0 1.5v2.9l0 1.3v1.2l0 1.1 0 1v0l0 .8.1.9v0l.1.8 0 .1.2.7 0 .1.2.6 0 .1.3.5.1.1.4.4.1.1.5.3.1 0 .6.2h0l.7.2.1 0 .9.1 3.4.3v1L73.7 69.9M61.3 14.5l-.8-.2L59.8 14l-.7-.4-.6-.5-.5-.6-.4-.6-.3-.7-.2-.8-.1-.8.1-.8.2-.8.3-.7.4-.6L58.6 6l.6-.5.7-.4.7-.3.8-.2.8-.1.8.1.8.2.7.3.7.4L65.7 6l.5.6.4.6.3.7.2.8.1.8v.1l-.1.8-.2.8-.3.7-.4.6-.5.6-.6.5L64.4 14l-.7.3-.8.2-.8.1L61.3 14.5M100.7 95.9l-3.8-.3L96 95.4l0 0-.7-.2-.1 0-.6-.2-.1 0-.5-.3-.1-.1-.4-.4-.1-.1-.3-.5 0-.1-.2-.6 0-.1-.2-.7 0-.1-.1-.8v0l-.1-.9 0-.8 0-.9v-1.1l0-1.2 0-1.3v-4.5l0-1.6V68.2l.3-.2.5.3.2.1.3.2.4.2.6.3.7.3.8.3 1 .3 1.1.3 1.2.2 1.4.2 1.5.1 1.6 0 1.8-.1 1.7-.2 1.7-.3 1.6-.5 1.5-.6 1.5-.7 1.4-.9 1.3-1 1.2-1.1 1.1-1.2 1-1.3 1-1.4.9-1.5.7-1.6.7-1.7.6-1.7.4-1.8.3-1.9.2-2 .1-2v0l-.1-2-.2-2-.3-1.9-.5-1.8-.6-1.7-.7-1.5-.8-1.5-.9-1.3-1-1.2-1.1-1.1-1.2-1-1.2-.9-1.3-.7-1.4-.6-1.4-.5-1.5-.3-1.5-.2-1.6-.1-1.6.1-1.5.2-1.5.3-1.4.5-1.4.5-1.3.6-1.3.6-1.2.7L95 31.1l-1 .7-1.3.9-.4-.2.1-5.5-.5.1-.5.1-.6.1-.7.2h0l-.7.2-.7.2h0l-.8.2-.7.2-.7.2-.7.2-.7.1-.8.2v0L83.5 29h0l-.8.1-.8.2h0L81 29.5l-.8.1-.7.1-.7.1L78.3 30 77.8 30l-.3 0V31l2 .2 1 .1 0 0 .8.2h.1l.7.2.1 0 .6.3.1.1.5.4.1.1.4.5 0 .1.3.6 0 .1.2.7 0 .1.2.9v0l.1 1v0l0 1.1 0 .4v.5l0 .6v1.5l0 .9v3.6l0 1.4v33.2l0 1.5v4l0 1.2v1.1l0 1v1l0 .9 0 1v0l-.1.8 0 0L84.5 93V93l-.2.6-.1.1L84 94.2l-.1.1-.4.4-.1.1L83 94.9l-.1 0-.6.2h-.1l-.7.2 0 0-.9.1-2.9.3v1h.6l.5 0 .7 0h.7l.8 0 .8 0 .9 0h.9l.9 0 .9 0h.9l.8 0h3l.8 0h.9l.9 0h.9l.9 0 .9 0 .9 0h.9l.8 0 .7 0h.7l.6 0h.6V95.9M103.9 69.2l-1.5-.1h-.1l-1.4-.2 0 0-1.3-.3h-.1l-1.2-.4 0 0-1.1-.4-.1 0-1-.5 0 0-.8-.6 0 0L94.7 66l0 0-.7-.6 0 0-.5-.6 0 0L93 64.1l0-.1-.3-.6 0 0-.3-.6V34.3l.2-.2.1 0 .1-.1.2-.2 0 0 .4-.3 0 0 .5-.3.6-.3 0 0 .7-.3h0l.8-.3 0 0 1-.3h0l1.1-.3 0 0 1.2-.2h0l1.3-.1h0l1.4-.1h0l1.4.1h.1l1.3.2.1 0 1.2.4.1 0 1.2.5 0 0 1.1.6 0 0 1.1.8 0 0 1 .9 0 0 .9 1 0 0 .9 1.1 0 0 .8 1.2 0 0 .7 1.3 0 0 .6 1.4 0 0 .5 1.5v0l.5 1.6v0l.3 1.6 0 0 .3 1.7v0l.2 1.7v0l.1 1.8 0 2.1v0l-.1 2v0l-.2 1.9v0l-.3 1.7 0 0-.4 1.6v0l-.5 1.5 0 0-.6 1.3 0 .1-.7 1.2 0 0-.8 1 0 0-.9.9-.1 0-1 .8 0 0-1.1.6-.1 0-1.2.5-.1 0-1.3.4 0 0-1.4.2h-.1L103.9 69.2 103.9 69.2"/><path class="st0" d="M145.1 70.3L143.9 70.1 142.8 69.7 141.7 69.3 140.8 68.7 140 68 139.3 67.2 138.8 66.6 138.5 66.1 138.2 65.5 137.9 64.9 137.7 64.3 137.6 63.6 137.4 62.8 137.3 61.9 137.3 60.9 137.2 59.8 137.2 58.5 137.2 55.4 137.2 54.5 137.2 53.5 137.2 52.4 137.3 51.2 137.3 50.1 137.3 48.8 137.3 47.6 137.3 46.3 137.3 45 137.4 43.8 137.4 42.6 137.4 41.3 137.4 41.3 137.4 40.1 137.5 39 137.5 37.9 137.5 36.9 137.5 36 137.5 35.2 137.6 34.4 137.6 33.8 137.6 33.3 137.6 32.9 137.6 32.1 132.2 32.1 132.7 31.7 132.7 31.7 133.2 31.2 133.8 30.7 134.4 30.1 134.4 30.1 135.1 29.5 135.7 28.8 135.7 28.8 136.4 28.2 137.1 27.5 137.7 26.9 138.3 26.2 138.9 25.7 139.5 25.1 140 24.5 140.1 24.5 140.6 23.9 141.2 23.2 141.8 22.6 142.4 21.9 143 21.3 143.5 20.7 144 20.1 144.5 19.6 145 19.1 145.2 18.9 145.2 19.2 145 28.8 159.2 28.8 159.2 32 145 32 145 32.8 145 33.2 145 33.7 144.9 34.3 144.9 35 144.9 35.8 144.9 36.7 144.9 37.7 144.9 37.7 144.8 38.7 144.8 39.8 144.8 40.9 144.8 42 144.8 43.2 144.7 44.3 144.7 45.4 144.7 46.6 144.7 47.6 144.7 48.6 144.6 49.6 144.6 50.5 144.6 51.4 144.6 52 144.6 55.5 144.6 56.7 144.6 56.7 144.7 57.8 144.7 58.9 144.7 58.9 144.8 59.9 144.8 59.9 144.9 60.8 144.9 60.8 145.1 61.6 145.1 61.7 145.3 62.4 145.7 63.3 145.8 63.3 146.3 64.1 146.4 64.2 147 64.8 147 64.8 147.7 65.3 147.8 65.4 148.6 65.7 148.6 65.8 149.5 66 149.5 66 150.5 66.2 150.5 66.2 151.6 66.2 151.6 66.2 152.5 66.2 152.6 66.2 153.5 66 153.5 66 154.4 65.7 154.4 65.7 155.3 65.4 155.3 65.3 156.1 65 156.8 64.6 156.8 64.5 157.4 64.1 157.5 64.1 158 63.7 158 63.7 158.5 63.4 158.7 63.2 159.2 64.2 158.7 64.6 157.9 65.3 157 66 156 66.7 154.9 67.5 153.8 68.1 152.6 68.7 151.5 69.3 150.2 69.7 148.9 70.1 147.7 70.3 146.4 70.4 145.1 70.3"/><path class="st0" d="M166.5 97.9L165.8 97.7 165.1 97.4 164.5 97 164 96.5 163.6 95.9 163.3 95.3 163.1 94.7 163 94 163.1 93.4 163.2 92.9 163.5 92.4 163.8 92 164.2 91.7 164.8 91.4 165.4 91.2 166.1 91 166.9 90.9 167.8 90.8 168.8 90.8 169.8 90.7 169.8 90.7 170.8 90.7 170.8 90.7 171.6 90.6 171.7 90.5 172.4 90.4 172.5 90.4 173.2 90.1 173.2 90.1 173.8 89.8 173.9 89.7 174.5 89.3 174.5 89.3 175.1 88.8 175.1 88.8 175.6 88.2 175.6 88.1 176.1 87.4 176.2 87.4 176.7 86.6 176.7 86.6 177.2 85.6 177.7 84.5 177.8 84.5 178.3 83.3 179 81.9 179.5 80.7 180 79.6 180.4 78.4 180.9 77.3 181.3 76.3 181.7 75.3 182.1 74.4 182.5 73.5 182.8 72.7 183 72 183.3 71.5 183.4 71 183.6 70.6 183.7 70.4 183.7 70.4 183.8 70.2 183.7 69.9 183.7 69.9 183.6 69.7 183.4 69.4 183.4 69.4 183.2 68.9 183 68.4 182.8 67.7 182.4 67 182.1 66.1 181.7 65.2 181.3 64.3 180.9 63.3 180.9 63.2 180.5 62.2 180 61.1 179.6 60 179.1 58.9 178.6 57.8 178.2 56.7 177.7 55.6 177.2 54.5 176.8 53.4 176.4 52.4 176.4 52.4 176 51.5 175.6 50.6 174.8 48.7 174.1 47.1 174.1 47 173.4 45.4 172.8 43.9 172.8 43.9 172.1 42.4 171.4 40.9 170.8 39.4 170 37.8 169.3 36.1 168.5 34.3 168.2 33.7 167.9 33 167.9 33 167.6 32.4 167.6 32.3 167.3 31.7 167.2 31.7 166.8 31.1 166.8 31 166.4 30.5 166.3 30.4 165.8 30 165.8 29.9 165.2 29.5 165.1 29.4 164.4 29.2 164.3 29.1 163.6 29 162.1 28.8 162.1 27.8 162.2 27.8 162.7 27.8 163.2 27.8 163.9 27.8 164.6 27.9 165.4 27.9 166.2 27.9 167.1 27.9 168 27.9 168.8 27.9 169.7 28 173 28 173.8 27.9 174.7 27.9 175.6 27.9 176.6 27.9 177.4 27.9 178.3 27.9 179.1 27.8 179.8 27.8 180.4 27.8 181 27.8 181.5 27.8 181.6 27.8 181.6 28.8 180 28.9 179 28.9 178.9 28.9 178.1 29.1 178 29.1 177.4 29.3 177.3 29.3 176.7 29.5 176.6 29.6 176.2 29.9 176.1 30.1 175.9 30.5 175.8 30.6 175.8 31.1 175.8 31.3 175.8 31.7 175.8 31.7 175.9 32.3 175.9 32.3 176.1 32.9 176.1 33 176.3 33.7 176.4 33.7 176.7 34.5 177 35.4 177 35.5 177.4 36.4 177.8 37.5 178.2 38.5 178.7 39.6 179.2 40.8 179.7 41.9 180.1 43 180.6 44.1 181 45.2 181.4 46.1 181.4 46.1 181.8 47 182.2 47.9 182.6 48.9 182.6 48.9 183 49.9 183.4 50.9 183.4 50.9 183.8 51.9 184.3 52.8 184.3 52.8 184.7 53.8 185 54.7 185.4 55.5 185.7 56.3 186.1 57.1 186.1 57.1 186.3 57.7 186.6 58.2 186.8 58.7 186.8 58.7 186.9 59 187 59.2 187 59.3 187.3 59.8 187.7 59.8 187.9 59.3 188 59.3 188 59.1 188 59.1 188.1 58.9 188.2 58.6 188.4 58.2 188.4 58.2 188.7 57.6 188.9 57 189.2 56.2 189.2 56.2 189.6 55.3 190 54.3 190.5 53.2 191 52 191.6 50.5 192.2 49 192.9 47.3 193.7 45.5 194.4 43.6 195.2 41.8 195.8 40.1 195.8 40.1 196.4 38.5 196.8 37.1 196.8 37.1 197.2 35.9 197.2 35.8 197.5 34.7 197.5 34.7 197.7 33.7 197.8 33.7 197.9 32.9 197.9 32.8 197.9 32.1 197.9 32.1 197.9 31.7 197.9 31.7 197.9 31.3 197.8 31.3 197.8 31 197.7 30.9 197.6 30.6 197.5 30.5 197.3 30.2 197.2 30.1 196.9 29.9 196.8 29.9 196.4 29.6 196.4 29.6 195.8 29.4 195.8 29.4 195.1 29.2 195.1 29.2 194.3 29.1 192.7 28.8 192.7 27.8 192.9 27.8 193.4 27.8 194 27.8 194.6 27.8 195.4 27.9 196.1 27.9 196.9 27.9 197.7 27.9 198.5 27.9 199.3 28 200.7 28 201.4 27.9 202.2 27.9 203 27.9 203.8 27.9 204.6 27.9 205.3 27.8 206 27.8 206.6 27.8 207 27.8 207.2 27.8 207.2 28.8 206 29.1 205.8 29.1 205.7 29.1 205.4 29.2 205.3 29.3 205 29.4 204.5 29.6 204.5 29.6 204 29.8 204 29.9 203.5 30.2 203.5 30.3 202.9 30.7 202.9 30.7 202.4 31.3 202.4 31.3 201.9 32 201.9 32 201.4 32.8 201.1 33.3 200.9 33.8 200.9 33.8 200.6 34.4 200.3 35 200 35.7 199.6 36.5 199.2 37.4 199.2 37.4 198.8 38.4 198.3 39.5 198.3 39.5 197.8 40.8 197.2 42.1 196.6 43.5 195.9 45.1 195.2 46.8 194.4 48.7 193.7 50.4 192.9 52.3 192.1 54.2 191.3 56.2 190.5 58.2 189.7 60.1 188.9 61.9 188.2 63.7 187.5 65.4 187.5 65.5 187.4 65.7 187.3 66 187.1 66.4 186.9 67 186.6 67.7 186.6 67.7 186.3 68.5 186 69.3 185.6 70.2 185.3 71.2 184.8 72.2 184.4 73.2 184 74.3 183.5 75.4 183.1 76.5 182.7 77.6 182.2 78.7 181.8 79.8 181.4 80.9 181 81.9 180.6 82.8 180.2 83.7 179.9 84.5 179.6 85.3 179.3 85.9 179 86.4 178.3 88.1 177.5 89.6 176.7 91 175.8 92.3 174.9 93.4 174 94.5 173.1 95.4 172.1 96.2 171.2 96.8 170.2 97.3 169.2 97.7 168.3 97.9 167.3 98 166.5 97.9"/><path class="st0" style="fill-rule:evenodd;" d="M254,96.9l-0.5,0l-0.6,0h-0.7l-0.8,0l-0.8,0l-0.9,0h-0.9
				l-0.9,0l-0.9,0H246l-0.8,0h-3l-0.8,0h-0.9l-0.9,0h-0.9l-0.9,0l-0.9,0l-0.9,0h-0.9l-0.8,0l-0.7,0h-0.7l-0.6,0h-0.6v-1l3.8-0.3
				l0.9-0.1l0,0l0.7-0.2l0.1,0l0.6-0.2l0.1,0l0.5-0.3l0.1-0.1l0.4-0.4l0.1-0.1l0.3-0.5l0-0.1l0.2-0.6l0-0.1l0.2-0.7l0-0.1l0.1-0.8v0
				l0.1-0.9V65l-0.3-0.2l-0.5,0.3l-0.1,0.1l-0.1,0.1l-0.3,0.2l-0.4,0.3l-0.5,0.3l-0.6,0.4l-0.7,0.5l-0.7,0.4L235,68l-0.9,0.5
				l-0.9,0.4l-1,0.4l-1,0.4l-1.1,0.4l-1.1,0.3l-1.2,0.2l-1.2,0.2l-1.2,0l-1.6-0.1l-1.5-0.2l-1.4-0.3l-1.4-0.5l-1.3-0.6l-1.3-0.7
				l-1.2-0.9l-1.1-1l-1-1.1l-0.9-1.2l-0.9-1.3l-0.8-1.4l-0.7-1.6l-0.6-1.7l-0.4-1.8l-0.3-1.9l-0.2-2l-0.1-2l0.1-2.1l0.2-2l0.3-1.9
				l0.5-1.9l0.6-1.8l0.7-1.7l0.8-1.6l0.9-1.5l1-1.4l1.1-1.3l1.1-1.2l1.3-1.1l1.3-1l1.4-0.8l1.5-0.7L223,28l1.6-0.5l1.7-0.3L228,27
				l1.8-0.1l1.4,0l1.3,0.1l1.2,0.1l1.1,0.2l1,0.2l0.9,0.2l0.8,0.2l0.7,0.2l0.6,0.2l0.5,0.2v0l0.3,0.1l0.2,0.1l0.3,0.1l0.3-0.2
				l0.2-0.1l0.3-0.2h0l0.4-0.2l0.5-0.2l0.5-0.3l0.5-0.3h0l0.5-0.3l0.5-0.3l0.5-0.3l0.5-0.3l0.6-0.3l0.5-0.2l0,0l0.5-0.2l0.5-0.2
				l0.3-0.1v1.1l0,0.7v4.2l0,1.3v2.8l0,1.5v4.8l0,1.7v7l0,1.8v24.9l0,2.2v4l0,1.8v1.6l0,1.5l0,1.3l0,1.2l0,1v0l0.1,0.8l0,0.1
				l0.2,0.7V93l0.2,0.6l0.1,0.1l0.3,0.5l0.1,0.1l0.4,0.4l0.1,0.1l0.5,0.3l0.1,0l0.6,0.2h0.1l0.7,0.2l0,0l0.9,0.1l2.9,0.3v1H254
				 M230,66.7l-1.3-0.1h-0.1l-1.3-0.2l0,0l-1.2-0.3l-0.1,0l-1.2-0.5l0,0l-1.1-0.6l-0.1,0l-1-0.7l0,0l-1-0.8l0,0l-0.9-1l0,0l-0.8-1.1
				l0,0l-0.8-1.2l0,0l-0.7-1.4v0l-0.6-1.5l0,0l-0.5-1.6v0l-0.4-1.7l0,0l-0.3-1.9v0l-0.2-2v0l-0.1-2.1v0l0-2v0l0.2-1.9v0l0.2-1.8v0
				l0.3-1.7l0,0l0.4-1.6v0l0.5-1.5l0,0l0.6-1.4l0,0l0.7-1.2l0,0l0.8-1.1l0,0l0.9-1l0,0l1-0.9l0,0l1-0.7l0.1,0l1.1-0.6l0,0l1.2-0.5
				l0.1,0l1.3-0.3l0,0l1.4-0.2h0.1l1.4-0.1h0l1.4,0.1h0l1.3,0.2l0,0l1.2,0.2h0l1.1,0.3l0,0l1,0.4h0l0.8,0.4l0,0l0.7,0.4l0,0l0.6,0.4
				l0,0l0.5,0.4l0,0l0.4,0.4l0.3,0.3l0,0l0.2,0.2l0.1,0.2l0,0.1l0.1,0.2v30.7l-0.2,0.1l0,0l-0.1,0.1l0,0l-0.3,0.2h0l-0.4,0.3l0,0
				l-0.5,0.3h0l-0.6,0.3l0,0l-0.7,0.3h0l-0.8,0.3l0,0l-1,0.3h0l-1.1,0.3l0,0l-1.2,0.2h0l-1.3,0.1h0L230,66.7L230,66.7"></path><path class="st0" d="M276.4 70.7L277.9 70.5 279.4 70.2 280.8 69.8 282.2 69.3 283.5 68.8 284.8 68.2 286 67.6 287.1 66.9 288.1 66.3 289 65.7 289.8 65.2 290.5 64.7 291.4 63.9 291.8 64.1 291.8 70.7 292 70.7 292.4 70.6 292.5 70.6 293 70.6 293.7 70.5 294.4 70.4 295.2 70.3 295.3 70.3 296.1 70.2 296.8 70.1 297.6 70 298.3 69.9 298.4 69.9 299.1 69.9 299.8 69.8 300.5 69.7 301.3 69.6 301.3 69.6 302.1 69.6 302.9 69.5 303.6 69.4 304.4 69.3 305 69.2 305.6 69.1 306.2 69 306.2 69 306.6 69 306.8 68.9 306.8 68.1 306.7 68.1 306.2 68.2 305.8 68.2 305.3 68.2 304.8 68.2 303.8 68.2 303.8 68.2 303 68.1 302.9 68 302.2 67.8 302.1 67.8 301.5 67.6 301.4 67.5 300.9 67.1 300.8 67.1 300.5 66.6 300.4 66.5 300.1 66 300 65.9 299.8 65.3 299.8 65.2 299.7 64.5 299.6 64.5 299.5 63.6 299.5 63.6 299.5 62.7 299.5 62.6 299.4 61.6 299.4 60.3 299.4 59.1 299.4 58 299.3 57.1 299.3 56.2 299.3 55.3 299.3 54.5 299.2 53.7 299.2 52.8 299.2 52 299.2 51.1 299.2 50.1 299.2 44.2 299.2 43.1 299.2 39.6 299.2 38.4 299.2 36 299.3 34.9 299.3 31.6 299.3 30.6 299.3 28.1 299.3 27.6 299.3 27 299.3 27 298.8 27.1 298.3 27.3 297.7 27.4 297.1 27.6 297 27.6 296.4 27.7 295.6 27.9 295.6 27.9 294.8 28.1 294.1 28.2 293.4 28.4 292.7 28.6 292 28.7 291.2 28.8 291.2 28.9 290.4 29 290.4 29 289.6 29.2 288.8 29.3 288.8 29.3 287.9 29.5 287.2 29.6 286.4 29.7 285.8 29.8 285.2 30 284.7 30 284.4 30.1 284.4 31 286.4 31.1 287.5 31.2 287.6 31.3 288.4 31.5 288.5 31.5 289.2 31.8 289.3 31.9 289.9 32.3 290 32.3 290.5 32.8 290.6 32.9 291 33.6 291 33.7 291.3 34.4 291.3 34.5 291.5 35.4 291.5 35.4 291.6 36.5 291.6 36.5 291.7 37.7 291.7 39.4 291.7 39.5 291.8 41.1 291.8 42.6 291.8 44.1 291.8 45.6 291.8 62.8 290.7 63.5 290.7 63.5 289.7 64 289.7 64 288.8 64.5 288.7 64.5 287.7 65 287.7 65 286.6 65.4 286.6 65.5 285.4 65.8 285.4 65.8 284.1 66.1 284.1 66.1 282.7 66.3 282.7 66.3 281.2 66.3 281.2 66.3 280 66.3 280 66.3 278.9 66.1 278.9 66.1 277.9 65.9 277.9 65.9 276.9 65.5 276.9 65.5 276 65 275.9 65 275.2 64.5 275.1 64.4 274.4 63.8 274.4 63.7 273.8 63 273.7 62.9 273.2 62 273.2 62 272.8 61 272.8 61 272.4 59.9 272.4 59.8 272.2 58.6 272.2 58.6 272.1 57.3 272.1 56.2 272.1 55.3 272 54.3 272 53.3 272 52.3 272 51.3 272 43 272 41.9 272 39.7 272 38.6 272.1 37.4 272.1 36.2 272.1 35.1 272.1 34 272.1 32.8 272.1 31.8 272.1 30.8 272.1 29.8 272.2 29 272.2 28.3 272.2 27 271.7 27.1 271.2 27.3 270.6 27.4 269.9 27.6 269.9 27.6 269.2 27.7 268.5 27.9 268.5 27.9 267.7 28.1 267 28.2 266.3 28.4 265.6 28.6 264.9 28.7 264.1 28.8 264.1 28.9 263.3 29 263.3 29 262.5 29.2 261.7 29.3 261.6 29.3 260.8 29.5 260.1 29.6 259.3 29.7 258.6 29.8 258.1 30 257.6 30 257.3 30.1 257.3 31 259.3 31.1 260.4 31.2 260.4 31.3 261.3 31.5 261.3 31.5 262.1 31.8 262.2 31.9 262.8 32.3 262.9 32.3 263.4 32.8 263.5 32.9 263.8 33.6 263.9 33.7 264.1 34.4 264.2 34.5 264.4 35.4 264.4 35.4 264.5 36.5 264.5 36.5 264.6 37.7 264.6 38.9 264.6 39.9 264.6 43.9 264.6 44.6 264.6 45.5 264.6 46.4 264.6 50.2 264.6 51.6 264.6 52.8 264.6 54 264.5 54.9 264.5 55.7 264.5 56.3 264.5 56.9 264.5 58.3 264.6 59.6 264.6 60.7 264.8 61.7 264.9 62.6 265.1 63.5 265.4 64.3 265.7 65 266.1 65.8 266.6 66.5 267.2 67.3 267.8 68.1 268.6 68.7 269.5 69.4 270.4 69.8 271.4 70.2 272.5 70.5 273.7 70.7 274.9 70.8 276.4 70.7"/><path class="st0" d="M332.9,70.7l1.7-0.2l1.7-0.3l1.6-0.5l1.6-0.6l1.5-0.7
				l1.4-0.7l1.4-0.8L345,66l1.3-0.9l1.2-0.9l1.1-0.9l1.1-0.9l0.7-0.6l-0.6-0.9l-0.5,0.4l-0.7,0.5l0,0l-0.8,0.5h0l-0.9,0.6l0,0
				l-1,0.6h0l-1,0.5l0,0l-1.1,0.5h0l-1.2,0.5l0,0l-1.3,0.4h0l-1.4,0.3l0,0l-1.4,0.2h0l-1.5,0.1h0l-1.5-0.1h0l-1.5-0.2l0,0l-1.5-0.3
				h-0.1l-1.4-0.5l0,0l-1.3-0.6l-0.1,0l-1.3-0.7l0,0l-1.2-0.8l0,0l-1.1-1l0,0l-1-1.1l0,0l-1-1.2l0,0l-0.8-1.3l0,0l-0.8-1.4l0,0
				l-0.7-1.5l0,0l-0.6-1.6v0l-0.4-1.8l0,0l-0.3-1.9v0l-0.2-2v0l-0.1-2.1v-1.3h1.2l0.5,0h0.6l0.7,0h1.6l0.9,0h0.9l0.9,0h6.3l1.3,0
				h1.3l1.3,0h1.3l1.3,0l1.3,0h1.2l1.2,0h1.1l1,0h0l0.9,0h0.9l0.7,0h0.7l0.5,0h0.2l-0.1-0.7l-0.2-1.2l-0.2-1.2L349,40l-0.3-1.2
				l-0.4-1.1l-0.5-1.1l-0.5-1.1l-0.6-1l-0.6-1l-0.7-0.9l-0.8-0.9l-0.9-0.8l-0.9-0.8l-1-0.7l-1.1-0.6l-1.2-0.6l-1.3-0.4l-1.4-0.4
				l-1.5-0.2l-1.6-0.2l-1.7-0.1l-1.2,0l-1.3,0.2l-1.2,0.2l-1.2,0.4l-1.2,0.4l-1.2,0.5l-1.1,0.6l-1.1,0.7l-1.1,0.8l-1.1,0.9l-1,1
				l-0.9,1.1l-0.9,1.2l-0.8,1.3l-0.7,1.4l-0.7,1.5l-0.6,1.6l-0.5,1.7l-0.4,1.8l-0.3,1.9l-0.2,2l-0.1,2.1l0.1,1.9l0.2,1.8l0.3,1.8
				l0.5,1.6l0.5,1.5l0.7,1.5l0.8,1.4l0.9,1.3l0.9,1.2l1,1.1l1.1,1l1.1,0.9l1.2,0.8l1.2,0.7l1.3,0.6l1.3,0.5l1.3,0.4l1.3,0.3l1.3,0.2
				l1.3,0.1L332.9,70.7 M320,42.3L320,42.3l0-1v0l0.1-0.6v0l0.1-0.6l0.1-0.7l0,0l0.2-0.7v0l0.2-0.7v0L321,37v0l0.3-0.8l0,0l0.3-0.8
				v0l0.4-0.8l0,0l0.5-0.8l0,0l0.5-0.8l0,0l0.6-0.7l0,0l0.6-0.7l0,0l0.7-0.6l0,0l0.7-0.6l0.1,0l0.8-0.5l0,0l0.9-0.4l0.1,0l1-0.3
				l0.1,0l1-0.2h0.1l1.1-0.1h0l1.2,0.1h0.1l1.1,0.2l0.1,0l1,0.3l0,0l1,0.4l0.1,0l0.9,0.5l0,0l0.8,0.6l0,0l0.7,0.7l0,0l0.7,0.7l0,0
				l0.6,0.8l0,0l0.5,0.8l0,0l0.4,0.9v0l0.4,0.9l0,0l0.3,1v0l0.2,1l0,0l0.2,1v0l0.1,1v0l0.1,1v0l0,1.4l0,0H320"/></g></g><g><path class="st0" d="M138.9 138.6c0 2-.4 3.8-1.2 5.4-.8 1.6-1.9 2.9-3.3 3.8-1.4.9-3 1.4-4.8 1.4-1.4 0-2.5-.1-3.3-.4-.8-.3-1.3-.5-1.6-.7 0 5.4 0 8.6 0 9.6 0 .7.2 1.2.4 1.5.2.3.7.5 1.4.5l1.9.2v.9c-.6 0-1.5 0-2.7 0-1.2 0-2.1 0-2.8 0-.7 0-1.6 0-2.7 0-1.1 0-1.9 0-2.4 0V160l1.5-.2c.7-.1 1.1-.3 1.3-.5.2-.3.3-.8.3-1.5 0-1.5 0-5.5 0-11.9 0-7 0-10.8 0-11.3 0-.9-.2-1.6-.5-2s-.8-.6-1.7-.7l-1.1-.1v-.8c.4-.1.9-.2 1.6-.3.6-.1 1.4-.3 2.3-.5.4-.1.9-.2 1.6-.4.7-.2 1.2-.3 1.6-.4l0 2.5c2.3-1.7 4.4-2.5 6.4-2.5 1.4 0 2.7.4 3.9 1.1 1.2.8 2.2 1.8 2.9 3.2C138.5 135.2 138.9 136.8 138.9 138.6zM135.1 140.3c0-1.6-.3-3.1-.8-4.4-.5-1.3-1.3-2.3-2.2-3.1-1-.8-2-1.1-3.2-1.1-1.2 0-2.1.2-2.8.5-.7.3-1.2.6-1.4.8v12.4c.2.6.8 1.2 1.7 1.8.9.6 2 .9 3.2.9C133.3 148.1 135.1 145.5 135.1 140.3zM165.8 146.4c-.5.5-1.2 1.1-2.2 1.8-1 .7-1.9 1.1-2.8 1.1-.8 0-1.5-.3-1.9-.9-.5-.6-.8-1.1-.9-1.5-.5.4-1.2.9-2.3 1.6-1 .6-2.1.9-3.2.9-1.2 0-2.3-.5-3.3-1.4-1-.9-1.5-2-1.5-3.3 0-1.3.6-2.5 1.7-3.4 1.1-1 2.4-1.7 3.9-2.1.9-.3 1.8-.5 2.7-.6.9-.1 1.5-.2 1.9-.2 0-.4 0-1 .1-1.8 0-.8 0-1.5 0-2.2 0-1.2-.3-2.1-.8-2.7-.6-.6-1.3-1-2.1-1-.8 0-1.3.2-1.7.5-.4.3-.7.8-1 1.3-.4.8-.8 1.3-1.1 1.6-.4.3-.8.5-1.4.5-.5 0-.8-.2-1-.5-.2-.3-.3-.7-.3-1 0-.4.1-.7.4-1 .3-.3.7-.7 1.4-1 1.5-.9 3.4-1.4 5.5-1.4 2.1 0 3.5.3 4.4 1 .9.7 1.4 1.7 1.4 3 0 .7 0 1.9-.1 3.9-.1 1.9-.1 4.2-.1 6.9 0 1.6.6 2.4 1.8 2.4.4 0 .8-.1 1.3-.3.5-.2.8-.4 1-.6L165.8 146.4zM157.7 139.3c-.3 0-.8.1-1.5.2-.7.1-1.4.2-2.1.5-.8.2-1.6.6-2.2 1.2-.6.5-.9 1.2-.9 1.9 0 .9.2 1.6.6 2.2.4.6.9 1 1.5 1.3.6.3 1.3.4 1.9.4 1 0 1.9-.4 2.7-1.1L157.7 139.3zM186.9 131.4c0 .6-.3 1.3-.9 2-.6.8-1.2 1.1-1.8 1.1-.2 0-.4-.1-.6-.2s-.3-.3-.4-.6c-.1-.3-.3-.5-.4-.6-.3-.3-.6-.4-1-.4-.5 0-1 .4-1.5 1.1-.5.8-1 1.9-1.5 3.6 0 1 0 1.9 0 2.8 0 .9 0 1.9 0 3.1 0 1.2 0 2 0 2.3 0 .6.1 1 .3 1.2.2.3.5.4 1 .6.5.1 1.1.2 1.8.3l1.7.2v.9c-.8 0-2 0-3.4-.1-1.4 0-2.5 0-3.3 0-.7 0-1.6 0-2.7 0-1.1 0-1.9 0-2.4.1V148l1.5-.2c.7-.1 1.1-.3 1.3-.5.2-.3.3-.8.3-1.5 0-1.5 0-3.4 0-5.7 0-2.4 0-4.2 0-5.7 0-.9-.2-1.6-.5-2-.3-.4-.9-.6-1.7-.7l-1.1-.1v-.8c.4-.1.9-.2 1.6-.3.6-.1 1.4-.2 2.3-.5.4-.1.9-.2 1.6-.4.7-.2 1.2-.3 1.6-.4 0 0 0 1.9 0 5.7.2-.6.5-1.4 1-2.2.5-.9 1-1.6 1.6-2.2.9-.9 1.9-1.3 3.1-1.3.7 0 1.2.2 1.7.6C186.7 130.5 186.9 130.9 186.9 131.4zM205.4 148.9c-.6 0-1.5 0-2.6-.1-1.1 0-2.1 0-2.8 0-.7 0-1.6 0-2.7 0-1.1 0-1.9 0-2.4.1V148l1.5-.2c.7-.1 1.1-.3 1.3-.5.2-.3.3-.8.3-1.5 0-1.5 0-3.4 0-5.7 0-2.4 0-4.2 0-5.7 0-1-.2-1.6-.5-2-.3-.4-.9-.6-1.7-.7l-1.1-.1v-.8c.4-.1.9-.2 1.6-.3.6-.1 1.4-.2 2.3-.4.4-.1.9-.2 1.6-.4.7-.2 1.2-.3 1.6-.4 0 0 0 2.7 0 8.2 0 1 0 1.9 0 2.8 0 .9 0 1.9 0 3.1 0 1.2 0 1.9 0 2.3 0 .7.2 1.2.4 1.5.2.3.7.5 1.4.5l1.7.2V148.9zM202.4 122c0 .7-.2 1.3-.7 1.7-.5.5-1.1.7-1.7.7-.7 0-1.2-.2-1.7-.7-.5-.5-.7-1.1-.7-1.7 0-.7.2-1.2.7-1.7s1.1-.7 1.7-.7c.7 0 1.2.2 1.7.7C202.2 120.7 202.4 121.3 202.4 122zM226.6 143.2c0 1.9-.8 3.4-2.3 4.4-1.5 1-3.3 1.6-5.2 1.6-.8 0-1.6-.1-2.6-.3-1-.2-1.5-.3-1.8-.3-.6 0-1 0-1.2 0-.2 0-.3.1-.4.1 0 0-.1-1-.2-3 0-.4-.1-.9-.1-1.5 0-.6-.1-1-.1-1.2 0-.2 0-.4 0-.5h.9l.1.9c.2 1.5.8 2.6 1.7 3.4.9.8 2.2 1.2 3.8 1.2 1.2 0 2.2-.3 2.9-.9.7-.6 1.1-1.4 1.1-2.4 0-.8-.3-1.5-.8-2s-1.8-1.1-3.8-1.9c-.8-.3-1.5-.7-2.1-1-.6-.3-1.2-.7-1.7-1.1-.5-.4-.9-1-1.2-1.6-.3-.6-.4-1.4-.4-2.2 0-1.1.3-2.1 1-2.9.6-.8 1.5-1.5 2.5-1.9 1.1-.4 2.2-.6 3.5-.6.9 0 1.8.1 2.7.2.9.1 1.4.2 1.6.2.2 0 .5 0 .7-.1.2 0 .4-.1.5-.1v1c0 .8 0 1.8.1 2.7 0 1 .1 1.7.1 2.2h-.9l-.1-.6c-.2-1.5-.7-2.6-1.4-3.3-.7-.7-1.8-1-3.1-1-1.3 0-2.2.2-2.9.7-.6.5-1 1.1-1 2 0 .6.1 1.2.4 1.7.3.5.8.9 1.4 1.3.6.4 1.6.8 2.8 1.4 1.8.8 2.9 1.4 3.5 1.6.5.3 1 .7 1.5 1.3C226.3 141.4 226.6 142.2 226.6 143.2z"/></g></g></svg>
